{"title":"The Dark Knight Rises 2012 CAM XViD UNiQUE","uid":7471087,"size":2080932260,"categoryP":"video","categoryS":"movies","magnet":"?xt=urn:btih:c45e44dd9cf83941912602cc61f4f2c5cbd8dc36&amp;dn=The+Dark+Knight+Rises+2012+CAM+XViD+UNiQUE&amp;tr=udp%3A%2F%2Ftracker.openbittorrent.com%3A80&amp;tr=udp%3A%2F%2Fopen.demonii.com%3A1337&amp;tr=udp%3A%2F%2Ftracker.coppersurfer.tk%3A6969&amp;tr=udp%3A%2F%2Fexodus.desync.com%3A6969","seeders":1,"leechers":0,"uploader":"HeroMaster","files":-1,"time":1343153542,"description":"ooooo ooo ooooo ooo o8o .oooooo. ooooo ooo oooooooooooo\n`888' `8' `888b. `8' `&quot;' d8P' `Y8b `888' `8' `888' `8\n888 8 8 `88b. 8 oooo 888 888 888 8 888\n888 8 8 `88b. 8 `888 888 888 888 8 888oooo8\n888 8 8 `88b.8 888 888 888 888 8 888 &quot;\n`88. .8' 8 `888 888 `88b d88b `88. .8' 888 o\n`YbodP' o8o `8 o888o `Y8bood8P'Ybd' `YbodP' o888ooooood8\n\n\n.........why be the same as everyone else when YOU can be UNiQUE.........\n\n\nFormat : AVI\nFormat/Info : Audio Video Interleave\nFile size : 1.93 GiB\nDuration : 2h 36mn\nOverall bit rate : 1 761 Kbps\nWriting library : VirtualDub build 32842/release\n\n\nVideo\nID : 0\nFormat : MPEG-4 Visual\nFormat profile : Advanced Simple@L5\nFormat settings, BVOP : 2\nFormat settings, QPel : No\nFormat settings, GMC : No warppoints\nFormat settings, Matrix : Default (H.263)\nMuxing mode : Packed bitstream\nCodec ID : XVID\nCodec ID/Hint : XviD\nDuration : 2h 36mn\nBit rate : 1 493 Kbps\nWidth : 720 pixels\nHeight : 288 pixels\nDisplay aspect ratio : 2.500\nFrame rate : 29.970 fps\nColor space : YUV\nChroma subsampling : 4:2:0\nBit depth : 8 bits\nScan type : Progressive\nCompression mode : Lossy\nBits/(Pixel*Frame) : 0.240\nStream size : 1.63 GiB (85%)\nWriting library : XviD 64\n\n\nAudio\nID : 1\nFormat : MPEG Audio\nFormat version : Version 1\nFormat profile : Layer 3\nMode : Joint stereo\nMode extension : MS Stereo\nCodec ID : 55\nCodec ID/Hint : MP3\nDuration : 2h 36mn\nBit rate mode : Constant\nBit rate : 256 Kbps\nChannel(s) : 2 channels\nSampling rate : 48.0 KHz\nCompression mode : Lossy\nDelay relative to video : 985ms\nStream size : 287 MiB (15%)\nAlignment : Split accross interleaves\nInterleave, duration : 33 ms (1.00 video frame)\nInterleave, preload duration : 500 ms\nWriting library : LAME3.99r\nEncoding settings : -m j -V 4 -q 2 -lowpass 19.7\n\n &lt;a href=&quot;\nhttp://www.imdb.com/title/tt1345836/&quot; rel=&quot;nofollow&quot; target=&quot;_NEW&quot;&gt;\nhttp://www.imdb.com/title/tt1345836/&lt;/a&gt;\n\nRatings: 9.2/10 from 104,612 users Metascore: 78/100\nReviews: 1,073 user | 183 critic | 43 from Metacritic.com\n\nEight years on, a new terrorist leader, Bane, overwhelms Gotham's finest, and \nthe Dark Knight resurfaces to protect a city\n\nthat has branded him an enemy.\n\n\nDirector:\nChristopher Nolan\n\nWriters:\nJonathan Nolan (screenplay), Christopher Nolan (screenplay), and 3 more credits Â»\n\nStars:\nChristian Bale, Michael Caine and Gary Oldman\n\n\nSource Used\n26K files...........Thanks\n\n\nHeres a 1st look at The Dark Knight Rises as you can see from the screens its not greatest but then again they rarely are,1st cams ....Use it is a guide,stepping stone whatever you wanna call it to just have a look\n\n\nDropped saturation,changed hue,levels,denoised,contrast and many more but check \nout sample\n\nBetter audio is on way and better vid so i believe\n\n\nPoster:\n\n &lt;a href=&quot;\nhttp://i.imgur.com/sbT7Q.png&quot; rel=&quot;nofollow&quot; target=&quot;_NEW&quot;&gt;\nhttp://i.imgur.com/sbT7Q.png&lt;/a&gt;\n\n\nScreenshots:\n\n &lt;a href=&quot;\nhttp://i.imgur.com/VcZpb.png&quot; rel=&quot;nofollow&quot; target=&quot;_NEW&quot;&gt;\nhttp://i.imgur.com/VcZpb.png&lt;/a&gt;\n\n &lt;a href=&quot;\nhttp://i.imgur.com/h1rzn.png&quot; rel=&quot;nofollow&quot; target=&quot;_NEW&quot;&gt;\nhttp://i.imgur.com/h1rzn.png&lt;/a&gt;\n\n &lt;a href=&quot;\nhttp://i.imgur.com/dcRWA.png&quot; rel=&quot;nofollow&quot; target=&quot;_NEW&quot;&gt;\nhttp://i.imgur.com/dcRWA.png&lt;/a&gt;\n\n\nENJOY!","torrent":{"xt":"urn:btih:c45e44dd9cf83941912602cc61f4f2c5cbd8dc36","amp;dn":"The+Dark+Knight+Rises+2012+CAM+XViD+UNiQUE","amp;tr":["udp%3A%2F%2Ftracker.openbittorrent.com%3A80","udp%3A%2F%2Fopen.demonii.com%3A1337","udp%3A%2F%2Ftracker.coppersurfer.tk%3A6969","udp%3A%2F%2Fexodus.desync.com%3A6969"],"infoHash":"c45e44dd9cf83941912602cc61f4f2c5cbd8dc36","infoHashBuffer":{"type":"Buffer","data":[196,94,68,221,156,248,57,65,145,38,2,204,97,244,242,197,203,216,220,54]},"announce":[],"urlList":[]}}